<?xml version="1.0" encoding="UTF-8"?>
<svg version="1.1" viewBox="0 0 2048 564" width="580" height="160" xmlns="http://www.w3.org/2000/svg">
<path transform="translate(1403,53)" d="m0 0h252l1 1v16l-1 44-2 1-110 1h-61v89l7-1h140l1 1v60l-4 2h-144v102l94 1v-13l2-9 4-3h118v-222l1-68 1-2h157l23 2 19 4 18 6 19 10 14 11 7 7 8 11 8 15 5 16 3 18v27l-4 22-6 16-7 13-8 10-12 12-14 10-13 7h-2l19 38 10 19 9 17 37 1 6 2 1 1v169l-6 3h-410l-5-3-1-2-1-13v-67l1-2h-172l-4-1v-377zm379 62v114h65l16-2 14-5 11-8 6-7 6-12 3-11v-22l-4-16-5-10-9-10-8-5-12-4-12-2zm43 176-43 1v53h85v-3l-14-29-10-21-2-1z" fill="#025BB5"/>
<path transform="translate(32,53)" d="m0 0h151l23 2 21 4 18 6 16 8 10 7 10 9 8 9 7 12 6 17 3 19v22l-3 16-7 17-9 13-13 13-11 7-7 3 16 7 11 7 10 9 6 7 8 14 5 14 2 10 1 18-2 21-4 17-7 16-8 12-11 12-15 11-17 8-15 5-18 4-25 3-80 1h-81l-1-5v-352l1-20zm80 62-1 9v87l1 1 65-1 16-3 13-5 10-9 5-7 4-13v-20l-2-10-6-12-5-6-14-7-6-2-14-2zm0 155-1 5v95h70l16-2 11-4 10-6 8-8 6-12 2-9v-17l-4-16-5-9-6-7-14-7-14-3z" fill="#025BB5"/>
<path transform="translate(1067,53)" d="m0 0h150l24 2 20 4 21 7 17 9 9 7 10 9 9 13 6 12 4 13 3 22v13l-3 18-6 16-8 13-11 12-10 8-12 6 12 5 15 9 10 9 9 12 8 17 4 18v27l-3 18-5 16-8 15-7 9-5 6-14 11-14 8-19 7-21 5-26 3-90 1h-60l-10-1-1-1v-372zm80 62-1 1v95l1 1h19l45-1 17-3 12-5 8-6 6-7 5-13 1-6v-14l-2-12-4-10-9-10-12-6-14-3-6-1zm0 155-1 1v99h70l19-3 12-5 9-7 7-9 4-9 2-13-1-15-3-12-6-11-7-7-12-6-14-3z" fill="#025BB5"/>
<path transform="translate(728,53)" d="m0 0h157l22 2 16 3 21 7 16 8 14 10 12 12 9 13 7 15 4 14 2 13 1 18-1 15-4 20-5 14-7 13-7 9-9 10-14 11-15 9-5 1 20 39 14 27 24 46 15 29 8 16v3l-8 2h-78l-8-15-11-23-42-84-8-17-1-1h-60v138l-8 3h-73v-374zm80 62-1 1v113h66l16-2 13-5 9-6 8-8 7-14 3-14v-14l-3-16-4-10-8-11-5-4-14-7-16-3z" fill="#025AB5"/>
<path transform="translate(1585,348)" d="m0 0h87l323 1 1 1v164l-1 2-131 1-283-1-1-1v-163l1-3z" fill="#010205"/>
<path transform="translate(480,53)" d="m0 0h73l5 12 19 51 15 40 16 43 15 40 16 43 30 80 22 59 2 6v4l-5 1h-79l-3-7-12-40-8-25-2-9-135 1-18 56-7 21-5 3h-81l1-5 10-25 13-35 18-48 11-30 11-29 18-49 32-86 18-49 8-19zm36 99-6 17-13 38-14 43-12 35v4h88l2-2-5-18-13-38-12-37-14-42z" fill="#025BB6"/>
<path transform="translate(1403,53)" d="m0 0h252l1 1v16l-1 44-2 1-110 1h-61v89l7-1h140l1 1v60l-4 2h-144v102l93 1 1 1v61l-1 1h-170l-4-1v-377z" fill="#025AB3"/>
<path transform="translate(1884,366)" d="m0 0h20l21 1 10 3 9 5 7 7 4 9 1 14-2 9-6 9-4 3-5 1v2l6 2 8 7 5 10 1 5v9l-3 10-6 10-10 7-9 3-6 1h-60l-1-1v-109l1-16z" fill="#FAFBFB"/>
<path transform="translate(1701,366)" d="m0 0h25l2 2v124l-1 1h-27l-1-52-48-1v53h-26l-1-1v-124l1-1h26v52h49v-52z" fill="#FAFAFB"/>
<path transform="translate(1748,366)" d="m0 0h24l1 1 1 84 2 10 6 7 7 3h12l8-3 5-6 2-7 1-88 4-1 23 1v83l-2 15-5 10-8 9-16 8-5 1h-26l-10-3-9-5-5-4-7-10-4-13v-91z" fill="#FBFBFB"/>
<path transform="translate(1781,292)" d="m0 0h1v53l86-1 26 1h98l6 2 1 1v169l-6 3h-410l-5-3-1-2-1-13v-67l1-2-2-1v-62l2-19 3-5 2-1 119-1 80 1zm-196 56-4 1-1 3v163l1 1 286 1 128-1 1-2v-164l-1-1-336-1z" fill="#F0F1F1"/>
<path transform="translate(32,54)" d="m0 0h1v375l165 1v1l-6 1-80 1h-81l-1-5v-352l1-20z" fill="#021F3D"/>
<path transform="translate(1892,440)" d="m0 0h20l12 2 6 5 2 5v8l-3 6-5 4-5 2h-28v-31z" fill="#010206"/>
<path transform="translate(1891,388)" d="m0 0h26l8 4 3 3 1 3v10l-3 6-4 3-5 2h-26z" fill="#010103"/>
<path transform="translate(1066,55)" d="m0 0h2v374l165 1v1l-7 1-90 1h-60l-10-1-1-1v-372z" fill="#1B3551"/>
<path transform="translate(727,54)" d="m0 0h2v375l77 1-3 2-7 1h-70v-374z" fill="#012143"/>
<path transform="translate(1402,220)" d="m0 0h1v209l172 1v3h-170l-4-1v-207z" fill="#080E15"/>
<path transform="translate(1702,54)" d="m0 0h1v289l-3 1v-221l1-68z" fill="#080A0E"/>
<path transform="translate(31,429)" d="m0 0 167 1v1l-6 1-80 1h-81z" fill="#06182B"/>
<path transform="translate(1065,410)" d="m0 0h1v19l167 1v1l-7 1-90 1h-60l-10-1-1-1z" fill="#191D24"/>
<path transform="translate(915,385)" d="m0 0 3 4 15 30 6 10 80 1-4 2h-78l-8-15-11-23-3-6z" fill="#0E335A"/>
<path transform="translate(727,409)" d="m0 0h1l1 20 77 1-3 2-7 1h-70v-23z" fill="#050E19"/>
<path transform="translate(604,412)" d="m0 0 2 3 5 14 81 1-4 2h-79l-3-7-2-7z" fill="#02152A"/>
<path transform="translate(338,429)" d="m0 0 84 1-3 2h-81z" fill="#012D5A"/>
<path transform="translate(727,54)" d="m0 0h2v42l-1 9-2 1v-47z" fill="#011E3D"/>
<path transform="translate(915,385)" d="m0 0 3 4 15 30 3 5-1 3-3-4-11-23-6-12z" fill="#07203C"/>
<path transform="translate(1859,324)" d="m0 0 4 5 6 13-1 2-4-6-5-11z" fill="#0B223A"/>
<path transform="translate(935,426)" d="m0 0h2l2 3 6 1v2h-8l-2-3z" fill="#010D1B"/>
<path transform="translate(516,159)" d="m0 0" fill="#CCD0D3"/>
<path transform="translate(1256,285)" d="m0 0" fill="#CCD0D3"/>
<path transform="translate(1255,284)" d="m0 0" fill="#CCD0D3"/>
<path transform="translate(220,284)" d="m0 0" fill="#CCD0D3"/>
<path transform="translate(1254,283)" d="m0 0" fill="#CCD0D3"/>
</svg>
